<svg aria-hidden="true" style="width:0;height:0;position:absolute;overflow:hidden" xmlns="http://www.w3.org/2000/svg"><defs><symbol id="icon-film-from-header" viewBox="0 0 32 32"><path stroke-linejoin="round" stroke-linecap="round" stroke-width="2.667" d="M26.427 2.667H5.574a2.907 2.907 0 0 0-2.907 2.907v20.853a2.907 2.907 0 0 0 2.907 2.907h20.853a2.907 2.907 0 0 0 2.907-2.907V5.574a2.907 2.907 0 0 0-2.907-2.907zM9.333 2.667v26.667M22.667 2.667v26.667M2.667 16h26.667M2.667 9.333h6.667M2.667 22.667h6.667M22.667 22.667h6.667M22.667 9.333h6.667"/></symbol><symbol id="icon-lupa-for-input" viewBox="0 0 32 32"><path fill="none" stroke="#fff" style="stroke:var(--color1,#fff)" stroke-linejoin="round" stroke-linecap="round" stroke-width="2.667" d="M14.667 25.333c5.891 0 10.667-4.776 10.667-10.667S20.558 3.999 14.667 3.999 4 8.775 4 14.666s4.776 10.667 10.667 10.667zM28 28.001l-5.8-5.8"/></symbol><symbol id="icon-arrow-left" viewBox="0 0 32 32"><path stroke-linejoin="round" stroke-linecap="round" stroke-width="2.667" d="M25.333 16H6.666M16 25.334l-9.333-9.333L16 6.668"/></symbol><symbol id="icon-arrow-right" viewBox="0 0 32 32"><path stroke-linejoin="round" stroke-linecap="round" stroke-width="2.667" d="M6.667 16h18.667M16 25.334l9.333-9.333L16 6.668"/></symbol><symbol id="icon-close" viewBox="0 0 32 32"><path d="M31.708 25.708 22 16l9.708-9.708a1 1 0 0 0 0-1.414L27.122.292a1 1 0 0 0-1.414-.001L16 9.999 6.292.291a.998.998 0 0 0-1.414.001L.292 4.878a1 1 0 0 0 0 1.414L10 16 .292 25.708a.999.999 0 0 0 0 1.414l4.586 4.586a1 1 0 0 0 1.414 0L16 22l9.708 9.708a1 1 0 0 0 1.414 0l4.586-4.586a.999.999 0 0 0 0-1.414z"/></symbol><symbol id="icon-user-check" viewBox="0 0 32 32"><path d="m30 19-9 9-3-3-2 2 5 5 11-11z"/><path d="M14 24h10v-3.598c-2.101-1.225-4.885-2.066-8-2.321v-1.649c2.203-1.242 4-4.337 4-7.432 0-4.971 0-9-6-9S8 4.029 8 9c0 3.096 1.797 6.191 4 7.432v1.649c-6.784.555-12 3.888-12 7.918h14v-2z"/></symbol><symbol id="svg-UpBtn" viewBox="0 0 32 32"><path d="m27.414 12.586-10-10a2 2 0 0 0-2.828 0l-10 10a2 2 0 1 0 2.828 2.828L14 8.828V28a2 2 0 1 0 4 0V8.828l6.586 6.586c.39.39.902.586 1.414.586s1.024-.195 1.414-.586a2 2 0 0 0 0-2.828z"/></symbol><symbol id="moon" viewBox="0 0 32 32"><path d="M19.087 1.131A11.983 11.983 0 0 0 9.08 6.091l-.024.035a11.01 11.01 0 0 1 5.213-.613c6.019.744 10.306 6.244 9.562 12.269-.369 3-1.925 5.569-4.131 7.306 5.719-.441 10.29-4.832 11.006-10.428l.006-.06c.058-.442.091-.954.091-1.473 0-6.106-4.561-11.148-10.462-11.902l-.06-.006c-.347-.046-.76-.078-1.179-.088h-.015zM3.672 5.713c.25.669.125 2.294-.062 2.763 1.318.588 1.199 2.2.999 2.681 1.946.313 2.196.981 2.252 2.119.831-.744 1.45-1.019 3.025.238.188-.469 1.2-1.706 2.512-1.106.194-.469 1.206-1.7 1.838-1.988-1.131-1.063-2.644-1.181-3.719-1.094-.375.95-1.031 1.781-1.906 1.381l.394-1.488-.631.269-.238-.662-.737 1.35c-.881-.394-.769-1.481-.4-2.412-.681-.875-1.821-1.938-3.328-2.05zm16.147 13.118c-2.519.05-4.556 1.55-5.85 2.819.494 1.613.494 3.375-1.088 3.875L11.837 23.2l-.544 1.056-1.044-.55.45 2.512c-1.594.494-2.581-.956-3.075-2.563-1.839-.313-4.463-.363-6.593 1.2 1.042.55 2.571 2.719 2.822 3.519 2.374-.744 3.928 1.413 4.159 2.225 2.931-1.813 3.969-1.262 5.256.1.3-1.856.844-2.913 4.256-3.119-.244-.8-.194-3.462 2.188-4.219-.25-.806-.2-3.475.35-4.531h-.244z"/></symbol><symbol id="sun" viewBox="0 0 32 32"><path d="M2.943 18.381c.04-.126.086-.278.146-.443.212-.622.509-1.528.986-2.633.238-.549.509-1.151.853-1.779.337-.628.734-1.283 1.21-1.925.946-1.29 2.249-2.533 3.929-3.274 2.348-1.038 5.239-1.184 7.653-.284 2.467.919 4.412 2.811 5.311 5.291.192.529.331 1.072.423 1.627.827 4.861-3.049 10.259-8.268 9.855a6.462 6.462 0 0 1-1.277-.225c-2.527-.714-4.299-2.732-4.597-5.331a6.818 6.818 0 0 1-.026-.377c0-.126-.007-.251 0-.384a6.736 6.736 0 0 1 .694-2.864 1.77 1.77 0 0 1 .086-.159 1.77 1.77 0 0 1 .086-.159c.06-.099.119-.205.185-.304l.046-.073c.013-.026.033-.053.046-.073l.086-.126c.02-.033.079-.099.119-.159l.066-.086.033-.04-.007.007.013-.013c.291-.351.622-.642.972-.886s.734-.423 1.124-.542c.39-.119.794-.179 1.191-.179.397.007.787.066 1.164.185.046.013.093.033.139.046s.093.033.132.046l.06.02.033.013.013.007.02.007.165.079.02.007c.026.013-.013-.007-.007 0l.079.04c.033.02.073.04.106.06.066.04.139.086.205.132a2.609 2.609 0 0 1 1.026 2.057c0 .145-.02.291-.046.43a1.955 1.955 0 0 1-.126.397c-.013.033-.026.066-.04.093-.013.033-.033.06-.046.093s-.033.06-.046.079l-.02.04-.013.02-.007.007-.007.013c-.026.04-.053.073-.079.112l-.02.026-.007.013.007-.007-.033.046c-.04.059-.086.119-.126.179a4.55 4.55 0 0 1-.912.913c-.43.331-.873.536-1.27.615s-.754.026-1.019-.112a1.814 1.814 0 0 1-.562-.423c-.06-.06-.099-.112-.126-.145s-.04-.053-.04-.053l.02.06c.013.04.033.106.066.185s.079.179.146.298a1.834 1.834 0 0 0 .8.721c.211.1.463.172.734.198 2.494.258 4.723-2.037 4.623-4.478-.099-2.566-2.474-4.213-4.842-4.478-2.593-.291-5.093 1.23-6.575 3.294-1.429 1.978-1.885 4.524-1.521 6.912.06.384.139.767.251 1.144.007.013-1.462 5.913-1.462 5.913l4.762-1.131.159.119c1.283.926 2.778 1.528 4.346 1.799l2.123 3.446 2.222-3.611.179-.046.059-.013.079-.026.165-.046.165-.053.152-.053a11.268 11.268 0 0 0 2.963-1.541l4.855 1.151-1.25-5.272a12.309 12.309 0 0 0 .893-2.084l.086-.298.02-.073.02-.066.007-.033.066-.251.013-.06 5.027-3.102-5.172-3.188c-.119-.41-.258-.814-.417-1.204a12.52 12.52 0 0 0-.701-1.462l1.409-5.933-5.92 1.402a11.68 11.68 0 0 0-2.474-1.019L15.71.118l-2.871 4.663c-.172.033-.344.066-.516.106-.9.198-1.759.503-2.553.886L4.875 4.609 5.9 8.941a10.9 10.9 0 0 0-.423.595c-.271.403-.509.807-.714 1.204-.417.8-.721 1.574-.966 2.289-.06.179-.112.357-.165.529l-3.638 2.275 2.778 3.049.165-.503z"/></symbol><symbol id="icon-telegram" viewBox="0 0 32 32"><path d="M16 0C7.162 0 0 7.162 0 16s7.162 16 16 16 16-7.163 16-16S24.837 0 16 0zm7.863 10.969-2.625 12.369c-.181.881-.712 1.087-1.45.681l-4-2.956-1.919 1.869c-.225.219-.4.4-.8.4-.519 0-.431-.194-.606-.688L11.1 18.169l-3.956-1.231c-.856-.262-.862-.85.194-1.269l15.412-5.95c.7-.319 1.381.169 1.113 1.25z"/></symbol><symbol id="icon-github" viewBox="0 0 32 32"><path d="M16 .396c-8.84 0-16 7.164-16 16 0 7.071 4.584 13.067 10.94 15.18.8.151 1.093-.344 1.093-.769 0-.38-.013-1.387-.02-2.72-4.451.965-5.389-2.147-5.389-2.147-.728-1.847-1.78-2.34-1.78-2.34-1.449-.992.112-.972.112-.972 1.607.112 2.451 1.648 2.451 1.648 1.427 2.447 3.745 1.74 4.66 1.331.144-1.035.556-1.74 1.013-2.14-3.553-.4-7.288-1.776-7.288-7.907 0-1.747.62-3.173 1.647-4.293-.18-.404-.72-2.031.14-4.235 0 0 1.34-.429 4.4 1.64 1.28-.356 2.64-.532 4-.54 1.36.008 2.72.184 4 .54 3.04-2.069 4.38-1.64 4.38-1.64.86 2.204.32 3.831.16 4.235 1.02 1.12 1.64 2.547 1.64 4.293 0 6.147-3.74 7.5-7.3 7.893.56.48 1.08 1.461 1.08 2.96 0 2.141-.02 3.861-.02 4.381 0 .42.28.92 1.1.76C27.42 29.455 32 23.455 32 16.395c0-8.836-7.164-16-16-16z"/></symbol><symbol id="icon-youtube" viewBox="0 0 32 32"><path d="M31.681 9.6s-.313-2.206-1.275-3.175C29.187 5.15 27.825 5.144 27.2 5.069c-4.475-.325-11.194-.325-11.194-.325h-.012s-6.719 0-11.194.325c-.625.075-1.987.081-3.206 1.356C.631 7.394.325 9.6.325 9.6s-.319 2.588-.319 5.181v2.425c0 2.587.319 5.181.319 5.181s.313 2.206 1.269 3.175c1.219 1.275 2.819 1.231 3.531 1.369 2.563.244 10.881.319 10.881.319s6.725-.012 11.2-.331c.625-.075 1.988-.081 3.206-1.356.962-.969 1.275-3.175 1.275-3.175s.319-2.587.319-5.181v-2.425c-.006-2.588-.325-5.181-.325-5.181zM12.694 20.15v-8.994l8.644 4.513-8.644 4.481z"/></symbol></defs></svg>