<svg aria-hidden="true" style="position: absolute; width: 0; height: 0; overflow: hidden;" version="1.1" xmlns="http://www.w3.org/2000/svg" xmlns:xlink="http://www.w3.org/1999/xlink">
<defs>
<symbol id="icon-film-from-header" viewBox="0 0 32 32">
<path stroke-linejoin="round" stroke-linecap="round" stroke-miterlimit="4" stroke-width="2.6667" d="M26.427 2.667h-20.853c-1.605 0-2.907 1.301-2.907 2.907v20.853c0 1.605 1.301 2.907 2.907 2.907h20.853c1.605 0 2.907-1.301 2.907-2.907v-20.853c0-1.605-1.301-2.907-2.907-2.907z"></path>
<path stroke-linejoin="round" stroke-linecap="round" stroke-miterlimit="4" stroke-width="2.6667" d="M9.333 2.667v26.667"></path>
<path stroke-linejoin="round" stroke-linecap="round" stroke-miterlimit="4" stroke-width="2.6667" d="M22.667 2.667v26.667"></path>
<path stroke-linejoin="round" stroke-linecap="round" stroke-miterlimit="4" stroke-width="2.6667" d="M2.667 16h26.667"></path>
<path stroke-linejoin="round" stroke-linecap="round" stroke-miterlimit="4" stroke-width="2.6667" d="M2.667 9.333h6.667"></path>
<path stroke-linejoin="round" stroke-linecap="round" stroke-miterlimit="4" stroke-width="2.6667" d="M2.667 22.667h6.667"></path>
<path stroke-linejoin="round" stroke-linecap="round" stroke-miterlimit="4" stroke-width="2.6667" d="M22.667 22.667h6.667"></path>
<path stroke-linejoin="round" stroke-linecap="round" stroke-miterlimit="4" stroke-width="2.6667" d="M22.667 9.333h6.667"></path>
</symbol>


<symbol id="icon-lupa-for-input" viewBox="0 0 32 32">
<path fill="none" stroke="#fff" style="stroke: var(--color1, #fff)" stroke-linejoin="round" stroke-linecap="round" stroke-miterlimit="4" stroke-width="2.6667" d="M14.667 25.333c5.891 0 10.667-4.776 10.667-10.667s-4.776-10.667-10.667-10.667c-5.891 0-10.667 4.776-10.667 10.667s4.776 10.667 10.667 10.667z"></path>
<path fill="none" stroke="#fff" style="stroke: var(--color1, #fff)" stroke-linejoin="round" stroke-linecap="round" stroke-miterlimit="4" stroke-width="2.6667" d="M28 28.001l-5.8-5.8"></path>
</symbol>

<symbol id="icon-arrow-left" viewBox="0 0 32 32">
<path stroke-linejoin="round" stroke-linecap="round" stroke-miterlimit="4" stroke-width="2.6667" d="M25.333 16h-18.667"></path>
<path stroke-linejoin="round" stroke-linecap="round" stroke-miterlimit="4" stroke-width="2.6667" d="M16 25.334l-9.333-9.333 9.333-9.333"></path>
</symbol>

<symbol id="icon-arrow-right" viewBox="0 0 32 32">
<path stroke-linejoin="round" stroke-linecap="round" stroke-miterlimit="4" stroke-width="2.6667" d="M6.667 16h18.667"></path>
<path stroke-linejoin="round" stroke-linecap="round" stroke-miterlimit="4" stroke-width="2.6667" d="M16 25.334l9.333-9.333-9.333-9.333"></path>
</symbol>

<symbol id="icon-close" viewBox="0 0 32 32">
<path d="M31.708 25.708c-0-0-0-0-0-0l-9.708-9.708 9.708-9.708c0-0 0-0 0-0 0.105-0.105 0.18-0.227 0.229-0.357 0.133-0.356 0.057-0.771-0.229-1.057l-4.586-4.586c-0.286-0.286-0.702-0.361-1.057-0.229-0.13 0.048-0.252 0.124-0.357 0.228 0 0-0 0-0 0l-9.708 9.708-9.708-9.708c-0-0-0-0-0-0-0.105-0.104-0.227-0.18-0.357-0.228-0.356-0.133-0.771-0.057-1.057 0.229l-4.586 4.586c-0.286 0.286-0.361 0.702-0.229 1.057 0.049 0.13 0.124 0.252 0.229 0.357 0 0 0 0 0 0l9.708 9.708-9.708 9.708c-0 0-0 0-0 0-0.104 0.105-0.18 0.227-0.229 0.357-0.133 0.355-0.057 0.771 0.229 1.057l4.586 4.586c0.286 0.286 0.702 0.361 1.057 0.229 0.13-0.049 0.252-0.124 0.357-0.229 0-0 0-0 0-0l9.708-9.708 9.708 9.708c0 0 0 0 0 0 0.105 0.105 0.227 0.18 0.357 0.229 0.356 0.133 0.771 0.057 1.057-0.229l4.586-4.586c0.286-0.286 0.362-0.702 0.229-1.057-0.049-0.13-0.124-0.252-0.229-0.357z"></path>
</symbol>

<symbol id="icon-user-check" viewBox="0 0 32 32">
<path d="M30 19l-9 9-3-3-2 2 5 5 11-11z"></path>
<path d="M14 24h10v-3.598c-2.101-1.225-4.885-2.066-8-2.321v-1.649c2.203-1.242 4-4.337 4-7.432 0-4.971 0-9-6-9s-6 4.029-6 9c0 3.096 1.797 6.191 4 7.432v1.649c-6.784 0.555-12 3.888-12 7.918h14v-2z"></path>
</symbol>

<symbol id="svg-UpBtn" viewBox="0 0 32 32"><path d="M27.414 12.586l-10-10c-0.781-0.781-2.047-0.781-2.828 0l-10 10c-0.781 0.781-0.781 2.047 0 2.828s2.047 0.781 2.828 0l6.586-6.586v19.172c0 1.105 0.895 2 2 2s2-0.895 2-2v-19.172l6.586 6.586c0.39 0.39 0.902 0.586 1.414 0.586s1.024-0.195 1.414-0.586c0.781-0.781 0.781-2.047 0-2.828z"></path></symbol>

<symbol id="moon" viewBox="0 0 32 32">

<path d="M19.087 1.131c-0.085-0.002-0.185-0.003-0.286-0.003-3.999 0-7.541 1.956-9.721 4.963l-0.024 0.035c1.606-0.6 3.387-0.839 5.213-0.613 6.019 0.744 10.306 6.244 9.562 12.269-0.369 3-1.925 5.569-4.131 7.306 5.719-0.441 10.29-4.832 11.006-10.428l0.006-0.060c0.058-0.442 0.091-0.954 0.091-1.473 0-6.106-4.561-11.148-10.462-11.902l-0.060-0.006c-0.347-0.046-0.76-0.078-1.179-0.088l-0.015-0zM3.672 5.713c0.25 0.669 0.125 2.294-0.062 2.763 1.318 0.588 1.199 2.2 0.999 2.681 1.946 0.313 2.196 0.981 2.252 2.119 0.831-0.744 1.45-1.019 3.025 0.238 0.188-0.469 1.2-1.706 2.512-1.106 0.194-0.469 1.206-1.7 1.838-1.988-1.131-1.063-2.644-1.181-3.719-1.094-0.375 0.95-1.031 1.781-1.906 1.381l0.394-1.488-0.631 0.269-0.238-0.662-0.737 1.35c-0.881-0.394-0.769-1.481-0.4-2.412-0.681-0.875-1.821-1.938-3.328-2.050zM19.819 18.831c-2.519 0.050-4.556 1.55-5.85 2.819 0.494 1.613 0.494 3.375-1.088 3.875l-1.044-2.325-0.544 1.056-1.044-0.55 0.45 2.512c-1.594 0.494-2.581-0.956-3.075-2.563-1.839-0.313-4.463-0.363-6.593 1.2 1.042 0.55 2.571 2.719 2.822 3.519 2.374-0.744 3.928 1.413 4.159 2.225 2.931-1.813 3.969-1.262 5.256 0.1 0.3-1.856 0.844-2.913 4.256-3.119-0.244-0.8-0.194-3.462 2.188-4.219-0.25-0.806-0.2-3.475 0.35-4.531h-0.244z"></path>
</symbol>

<symbol id="sun" viewBox="0 0 32 32">

<path d="M2.943 18.381c0.040-0.126 0.086-0.278 0.146-0.443 0.212-0.622 0.509-1.528 0.986-2.633 0.238-0.549 0.509-1.151 0.853-1.779 0.337-0.628 0.734-1.283 1.21-1.925 0.946-1.29 2.249-2.533 3.929-3.274 2.348-1.038 5.239-1.184 7.653-0.284 2.467 0.919 4.412 2.811 5.311 5.291 0.192 0.529 0.331 1.072 0.423 1.627 0.827 4.861-3.049 10.259-8.268 9.855-0.43-0.033-0.86-0.106-1.277-0.225-2.527-0.714-4.299-2.732-4.597-5.331-0.013-0.126-0.020-0.251-0.026-0.377 0-0.126-0.007-0.251 0-0.384 0.020-1.012 0.265-2.011 0.694-2.864 0.026-0.053 0.053-0.106 0.086-0.159 0.026-0.053 0.053-0.106 0.086-0.159 0.060-0.099 0.119-0.205 0.185-0.304l0.046-0.073c0.013-0.026 0.033-0.053 0.046-0.073l0.086-0.126c0.020-0.033 0.079-0.099 0.119-0.159l0.066-0.086 0.033-0.040c0.026-0.026-0.013 0.013-0.007 0.007l0.013-0.013c0.291-0.351 0.622-0.642 0.972-0.886s0.734-0.423 1.124-0.542c0.39-0.119 0.794-0.179 1.191-0.179 0.397 0.007 0.787 0.066 1.164 0.185 0.046 0.013 0.093 0.033 0.139 0.046s0.093 0.033 0.132 0.046l0.060 0.020 0.033 0.013 0.013 0.007 0.020 0.007c0.053 0.026 0.112 0.053 0.165 0.079l0.020 0.007c0.026 0.013-0.013-0.007-0.007 0l0.079 0.040c0.033 0.020 0.073 0.040 0.106 0.060 0.066 0.040 0.139 0.086 0.205 0.132 0.529 0.39 0.886 1.019 0.986 1.614 0.026 0.152 0.040 0.298 0.040 0.443s-0.020 0.291-0.046 0.43c-0.026 0.139-0.073 0.271-0.126 0.397-0.013 0.033-0.026 0.066-0.040 0.093-0.013 0.033-0.033 0.060-0.046 0.093s-0.033 0.060-0.046 0.079l-0.020 0.040-0.013 0.020-0.007 0.007-0.007 0.013c-0.026 0.040-0.053 0.073-0.079 0.112l-0.020 0.026-0.007 0.013c-0.007 0.007 0.026-0.026 0.007-0.007l-0.033 0.046c-0.040 0.059-0.086 0.119-0.126 0.179-0.086 0.119-0.185 0.232-0.284 0.344-0.198 0.218-0.41 0.404-0.628 0.569-0.43 0.331-0.873 0.536-1.27 0.615s-0.754 0.026-1.019-0.112c-0.271-0.126-0.45-0.304-0.562-0.423-0.060-0.060-0.099-0.112-0.126-0.145s-0.040-0.053-0.040-0.053 0.007 0.020 0.020 0.060c0.013 0.040 0.033 0.106 0.066 0.185s0.079 0.179 0.146 0.298c0.066 0.113 0.159 0.238 0.291 0.37 0.132 0.126 0.298 0.251 0.509 0.351s0.463 0.172 0.734 0.198c2.494 0.258 4.723-2.037 4.623-4.478-0.099-2.566-2.474-4.213-4.842-4.478-2.593-0.291-5.093 1.23-6.575 3.294-1.429 1.978-1.885 4.524-1.521 6.912 0.060 0.384 0.139 0.767 0.251 1.144 0.007 0.013-1.462 5.913-1.462 5.913l4.762-1.131c0.053 0.040 0.106 0.079 0.159 0.119 1.283 0.926 2.778 1.528 4.346 1.799l2.123 3.446 2.222-3.611 0.179-0.046 0.059-0.013 0.079-0.026 0.165-0.046 0.165-0.053 0.152-0.053c1.072-0.364 2.064-0.893 2.963-1.541l4.855 1.151-1.25-5.272c0.165-0.304 0.318-0.615 0.456-0.933 0.165-0.377 0.311-0.761 0.437-1.151l0.086-0.298 0.020-0.073 0.020-0.066 0.007-0.033 0.066-0.251 0.013-0.060 5.027-3.102-5.172-3.188c-0.119-0.41-0.258-0.814-0.417-1.204-0.205-0.509-0.437-0.992-0.701-1.462l1.409-5.933-5.92 1.402c-0.304-0.165-0.615-0.324-0.933-0.463-0.509-0.225-1.025-0.41-1.541-0.556l-3.009-4.881-2.871 4.663c-0.172 0.033-0.344 0.066-0.516 0.106-0.9 0.198-1.759 0.503-2.553 0.886l-4.895-1.164 1.025 4.332c-0.152 0.198-0.291 0.397-0.423 0.595-0.271 0.403-0.509 0.807-0.714 1.204-0.417 0.8-0.721 1.574-0.966 2.289-0.060 0.179-0.112 0.357-0.165 0.529l-3.638 2.275 2.778 3.049 0.165-0.503z"></path>
</symbol>

<symbol id="icon-telegram" viewBox="0 0 32 32">
<path d="M16 0c-8.838 0-16 7.162-16 16s7.162 16 16 16 16-7.163 16-16-7.163-16-16-16zM23.863 10.969l-2.625 12.369c-0.181 0.881-0.712 1.087-1.45 0.681l-4-2.956-1.919 1.869c-0.225 0.219-0.4 0.4-0.8 0.4-0.519 0-0.431-0.194-0.606-0.688l-1.363-4.475-3.956-1.231c-0.856-0.262-0.862-0.85 0.194-1.269l15.412-5.95c0.7-0.319 1.381 0.169 1.113 1.25z"></path>
</symbol>

<symbol id="icon-github" viewBox="0 0 32 32">
<path d="M16 0.396c-8.84 0-16 7.164-16 16 0 7.071 4.584 13.067 10.94 15.18 0.8 0.151 1.093-0.344 1.093-0.769 0-0.38-0.013-1.387-0.020-2.72-4.451 0.965-5.389-2.147-5.389-2.147-0.728-1.847-1.78-2.34-1.78-2.34-1.449-0.992 0.112-0.972 0.112-0.972 1.607 0.112 2.451 1.648 2.451 1.648 1.427 2.447 3.745 1.74 4.66 1.331 0.144-1.035 0.556-1.74 1.013-2.14-3.553-0.4-7.288-1.776-7.288-7.907 0-1.747 0.62-3.173 1.647-4.293-0.18-0.404-0.72-2.031 0.14-4.235 0 0 1.34-0.429 4.4 1.64 1.28-0.356 2.64-0.532 4-0.54 1.36 0.008 2.72 0.184 4 0.54 3.040-2.069 4.38-1.64 4.38-1.64 0.86 2.204 0.32 3.831 0.16 4.235 1.020 1.12 1.64 2.547 1.64 4.293 0 6.147-3.74 7.5-7.3 7.893 0.56 0.48 1.080 1.461 1.080 2.96 0 2.141-0.020 3.861-0.020 4.381 0 0.42 0.28 0.92 1.1 0.76 6.401-2.099 10.981-8.099 10.981-15.159 0-8.836-7.164-16-16-16z"></path>
</symbol>

<symbol id="icon-youtube" viewBox="0 0 32 32">
<path d="M31.681 9.6c0 0-0.313-2.206-1.275-3.175-1.219-1.275-2.581-1.281-3.206-1.356-4.475-0.325-11.194-0.325-11.194-0.325h-0.012c0 0-6.719 0-11.194 0.325-0.625 0.075-1.987 0.081-3.206 1.356-0.963 0.969-1.269 3.175-1.269 3.175s-0.319 2.588-0.319 5.181v2.425c0 2.587 0.319 5.181 0.319 5.181s0.313 2.206 1.269 3.175c1.219 1.275 2.819 1.231 3.531 1.369 2.563 0.244 10.881 0.319 10.881 0.319s6.725-0.012 11.2-0.331c0.625-0.075 1.988-0.081 3.206-1.356 0.962-0.969 1.275-3.175 1.275-3.175s0.319-2.587 0.319-5.181v-2.425c-0.006-2.588-0.325-5.181-0.325-5.181zM12.694 20.15v-8.994l8.644 4.513-8.644 4.481z"></path>
</symbol>

</defs>
</svg>